<?xml version="1.0" encoding="UTF-8"?>
<svg version="1.1" xmlns="http://www.w3.org/2000/svg" width="2000" height="2000">
<path d="M0 0 C660 0 1320 0 2000 0 C2000 660 2000 1320 2000 2000 C1340 2000 680 2000 0 2000 C0 1340 0 680 0 0 Z " fill="#FEFEFE" transform="translate(0,0)"/>
<path d="M0 0 C1.07634705 0.00126892 2.15269409 0.00253784 3.26165771 0.00384521 C47.04926392 0.10241274 91.20350342 5.84991513 132.75 20.1875 C133.80977051 20.54859863 134.86954102 20.90969727 135.96142578 21.28173828 C150.41281134 26.22728751 164.56717878 31.49412215 178.36230469 38.06201172 C180.79394743 39.20821551 183.2416353 40.31200365 185.6953125 41.41015625 C212.54635053 53.58513908 237.74488103 69.79578982 260.75 88.1875 C261.65621094 88.91195312 262.56242187 89.63640625 263.49609375 90.3828125 C266.26784328 92.62756756 269.01361648 94.89976473 271.75 97.1875 C272.30333008 97.64914551 272.85666016 98.11079102 273.42675781 98.58642578 C280.44795967 104.4619815 287.18198448 110.45226512 293.578125 117.015625 C295.46370074 118.90120074 297.38073348 120.61976295 299.4375 122.3125 C302.50385127 124.87605464 305.03545535 127.69736438 307.6171875 130.7421875 C309.79125147 133.23479564 312.04324131 135.63223317 314.31787109 138.0324707 C320.74547723 144.83416538 326.65990345 151.87438328 332.32128906 159.32177734 C333.8187294 161.27725223 335.34065139 163.21170168 336.8671875 165.14453125 C371.95233794 209.8402383 397.39130209 263.32520274 410.14599609 318.625 C410.69369882 320.94864099 411.27981291 323.25583241 411.89453125 325.5625 C414.59058197 335.68594238 416.28982656 345.82860688 417.75 356.1875 C417.88293457 357.09983398 418.01586914 358.01216797 418.15283203 358.95214844 C418.57175722 361.84159465 418.97559449 364.73279534 419.375 367.625 C419.49818604 368.48037354 419.62137207 369.33574707 419.74829102 370.21704102 C421.98556504 387.02519992 421.9893034 404.13359014 422 421.0625 C422.00101212 422.52768066 422.00101212 422.52768066 422.00204468 424.02246094 C421.97283155 450.87014142 418.87449586 476.82057048 413.75 503.1875 C413.56743652 504.14495117 413.38487305 505.10240234 413.19677734 506.08886719 C409.86088228 523.22113712 404.36498361 539.69449865 398.75 556.1875 C398.27409424 557.59008057 398.27409424 557.59008057 397.78857422 559.02099609 C379.44064965 612.47203164 348.89943263 660.73834406 310.75 702.1875 C310.1926416 702.79529297 309.6352832 703.40308594 309.06103516 704.02929688 C302.37699922 711.30304891 295.72685534 718.50915692 288.2578125 724.9921875 C286.38119239 726.63496087 284.5541447 728.2963293 282.7421875 730.0078125 C275.09030219 737.23225733 267.14223858 743.84275297 258.75 750.1875 C258.03038086 750.73696289 257.31076172 751.28642578 256.56933594 751.85253906 C246.01320793 759.8942342 235.24822856 767.23644376 223.81103516 773.96435547 C221.91443252 775.08991567 220.03831871 776.24164581 218.16796875 777.41015625 C191.50452273 793.98939838 162.57952106 806.52535316 132.75 816.1875 C131.75967773 816.51202148 130.76935547 816.83654297 129.74902344 817.17089844 C91.91360017 829.48967734 91.91360017 829.48967734 78.75 829.1875 C78.75 829.8475 78.75 830.5075 78.75 831.1875 C80.39742187 831.22617188 80.39742187 831.22617188 82.078125 831.265625 C99.40347506 831.81901006 116.56168281 833.87778463 133.75805664 835.94793701 C135.54483816 836.16282601 137.33196799 836.37481418 139.11914062 836.58642578 C152.821035 838.2302009 166.25799974 840.77890126 179.76611328 843.58203125 C183.40351531 844.32010661 187.05079854 844.99219213 190.7019043 845.65844727 C202.55665719 847.82903582 214.23095659 850.62351494 225.93066406 853.50439453 C228.38415471 854.09885823 230.84036914 854.66740271 233.3046875 855.21484375 C244.42958985 857.691273 255.26294686 860.96616047 266.13623047 864.37207031 C268.33886719 865.05923701 270.54439762 865.73381181 272.75390625 866.3984375 C304.35286935 876.01106705 334.9439135 887.96099542 364.75 902.1875 C365.78447266 902.67943848 366.81894531 903.17137695 367.88476562 903.67822266 C398.83534523 918.49569433 429.33873879 936.1351367 455.75 958.1875 C456.29124512 958.63399902 456.83249023 959.08049805 457.39013672 959.54052734 C475.08276242 974.14716975 492.84083993 989.86750718 506.75 1008.1875 C507.71190107 1009.420837 508.67416713 1010.6538894 509.63671875 1011.88671875 C516.38674671 1020.61715327 522.35340718 1029.56674487 527.75 1039.1875 C528.1222168 1039.8376709 528.49443359 1040.4878418 528.87792969 1041.15771484 C537.81258572 1056.83716023 544.42385933 1073.66475518 548.75 1091.1875 C549.14966193 1092.80337918 549.14966193 1092.80337918 549.55739784 1094.45190239 C552.29406715 1107.09072506 552.17332365 1119.58068757 552.13818359 1132.46533203 C552.14225574 1134.98681871 552.1476012 1137.5083036 552.15411377 1140.02978516 C552.16630764 1146.13109024 552.16461412 1152.23224978 552.15587585 1158.33355655 C552.14906524 1163.29683169 552.14819706 1168.26007585 552.1514473 1173.22335434 C552.151907 1173.93318758 552.15236669 1174.64302082 552.15284032 1175.37436416 C552.15379962 1176.81692539 552.15477226 1178.2594866 552.1557581 1179.70204781 C552.16428536 1193.18623936 552.15451924 1206.67036943 552.138357 1220.1545509 C552.12495042 1231.69665189 552.12728988 1243.23866235 552.14111328 1254.78076172 C552.15720635 1268.2240176 552.16346772 1281.66721983 552.15427649 1295.110484 C552.15332096 1296.54674839 552.15237785 1297.98301279 552.1514473 1299.41927719 C552.15098447 1300.12572787 552.15052164 1300.83217854 552.15004479 1301.56003682 C552.14746649 1306.51196287 552.15180059 1311.46385457 552.15888596 1316.4157753 C552.16823013 1323.09228951 552.16147724 1329.76860755 552.14420319 1336.44511414 C552.14025518 1338.88710626 552.14134328 1341.32911283 552.14799118 1343.77109909 C552.21663164 1371.55817564 546.56359594 1394.752047 527.75 1416.1875 C527.09644531 1416.93644531 526.44289063 1417.68539063 525.76953125 1418.45703125 C513.47043597 1431.6329851 497.03847697 1439.72771944 479.75 1444.1875 C479.0579362 1444.36914108 478.3658724 1444.55078215 477.65283697 1444.7379275 C469.80587076 1446.55023411 461.98922734 1446.46935516 453.9859705 1446.44756222 C452.38719381 1446.45056206 450.78841857 1446.454434 449.18964586 1446.45909455 C444.79705409 1446.46936268 440.40454301 1446.46722386 436.01194447 1446.46303919 C431.23265306 1446.46067163 426.45338138 1446.4698438 421.67409748 1446.47752339 C413.2977328 1446.48936779 404.9213899 1446.49373626 396.54501724 1446.49320221 C384.08864684 1446.49240893 371.63230392 1446.50295934 359.17594086 1446.51561778 C334.33669862 1446.54035824 309.49746306 1446.54914062 284.65821019 1446.55415427 C282.72859024 1446.55454603 282.72859024 1446.55454603 280.75998807 1446.55494571 C279.4709921 1446.55520598 278.18199613 1446.55546626 276.85393967 1446.55573442 C262.57031377 1446.55881659 248.28668973 1446.56532131 234.00306511 1446.5719471 C190.86127171 1446.59159519 147.7194814 1446.60800513 104.57768345 1446.61082363 C103.18379237 1446.61091826 101.78990128 1446.61101327 100.3960102 1446.61110866 C94.10287835 1446.6115364 87.80974649 1446.61194178 81.51661463 1446.61234702 C78.7104206 1446.61252862 75.90422657 1446.61271351 73.09803254 1446.61289909 C71.69348201 1446.61299111 70.28893148 1446.61308151 68.88438095 1446.61317028 C24.48352854 1446.61598391 -19.91727844 1446.63770525 -64.31811523 1446.67456055 C-97.43461281 1446.70204402 -130.55110168 1446.72792385 -163.66761112 1446.73450565 C-164.33460479 1446.73463909 -165.00159846 1446.73477253 -165.68880406 1446.73491001 C-180.98994996 1446.73791159 -196.29109562 1446.73918936 -211.59224182 1446.73928314 C-216.82773563 1446.73937997 -222.06322942 1446.73954669 -227.29872322 1446.73976326 C-228.58783973 1446.73980737 -229.87695624 1446.73985149 -231.20513688 1446.73989694 C-251.9454316 1446.74101654 -272.68568198 1446.75842163 -293.42596242 1446.78158258 C-314.27438919 1446.80443224 -335.1227561 1446.8086457 -355.9711908 1446.79403328 C-368.3537686 1446.7858858 -380.73615774 1446.79155884 -393.11871263 1446.81721413 C-401.39648649 1446.83297946 -409.6741266 1446.8304748 -417.95189729 1446.8133074 C-422.66412899 1446.80404559 -427.37599765 1446.80251056 -432.08820086 1446.82327347 C-465.18215677 1446.95962218 -493.28439057 1442.74569074 -518.125 1418.75 C-528.87562326 1407.53127994 -536.57661413 1393.99949374 -541.25 1379.1875 C-541.49995035 1378.41647792 -541.7499007 1377.64545584 -542.00742531 1376.85106945 C-545.24176073 1365.21919614 -544.67090603 1353.38026689 -544.63818359 1341.40551758 C-544.6422538 1338.90081555 -544.64759819 1336.39611532 -544.65411377 1333.89141846 C-544.66633082 1327.81843357 -544.66460068 1321.74560326 -544.65587585 1315.67262457 C-544.64907189 1310.72981162 -544.64819425 1305.78702978 -544.6514473 1300.84421349 C-544.651907 1300.13790403 -544.65236669 1299.43159457 -544.65284032 1298.7038818 C-544.65379961 1297.26849589 -544.65477226 1295.83311 -544.6557581 1294.39772411 C-544.66429457 1280.9654059 -544.65450694 1267.53314929 -544.638357 1254.10084119 C-544.62497 1242.61171153 -544.62727193 1231.12267291 -544.64111328 1219.63354492 C-544.65722526 1206.25363075 -544.66345548 1192.87377055 -544.65427649 1179.49384803 C-544.65332098 1178.06252047 -544.65237786 1176.63119291 -544.6514473 1175.19986534 C-544.65098447 1174.49585666 -544.65052164 1173.79184798 -544.65004479 1173.0665057 C-544.64747059 1168.14053873 -544.65179202 1163.21460639 -544.65888596 1158.28864479 C-544.66825689 1151.63596035 -544.66143439 1144.9834722 -544.64420319 1138.33079529 C-544.64026663 1135.90177377 -544.64132324 1133.47273771 -544.64799118 1131.04372215 C-544.69066009 1113.90810381 -543.72582958 1097.5698303 -538.5 1081.125 C-538.24250977 1080.29685791 -537.98501953 1079.46871582 -537.71972656 1078.61547852 C-526.56577089 1043.61040215 -505.69517559 1011.62842842 -479.25 986.1875 C-476.65352161 983.6081037 -474.07826333 981.01133459 -471.5234375 978.390625 C-465.11116013 971.83268929 -458.50644049 965.81922803 -451.25 960.1875 C-450.61400879 959.6910498 -449.97801758 959.19459961 -449.32275391 958.68310547 C-427.86860418 941.96304078 -405.28335007 926.95236589 -381.25 914.1875 C-379.77950195 913.39907715 -379.77950195 913.39907715 -378.27929688 912.59472656 C-343.42526374 893.95558072 -306.96387725 878.9914157 -269.25 867.1875 C-268.49589844 866.9512793 -267.74179687 866.71505859 -266.96484375 866.47167969 C-254.51377987 862.61320572 -241.87762591 859.4089994 -229.25 856.1875 C-228.50862793 855.99800781 -227.76725586 855.80851562 -227.00341797 855.61328125 C-223.10238381 854.61910153 -219.19650354 853.64622536 -215.28613281 852.68945312 C-213.14412994 852.16140062 -211.00585018 851.61953504 -208.8671875 851.078125 C-197.29514558 848.19314158 -185.63726443 845.79873706 -173.9375 843.5 C-173.18053833 843.34961273 -172.42357666 843.19922546 -171.64367676 843.04428101 C-162.40737475 841.21556931 -153.21465564 839.73484315 -143.86279297 838.64135742 C-139.89097197 838.14239707 -135.99219788 837.43708291 -132.06201172 836.6875 C-126.17711938 835.64111525 -120.24219666 834.92862279 -114.3125 834.1875 C-113.28491577 834.05776794 -113.28491577 834.05776794 -112.23657227 833.92541504 C-97.94058882 832.13448782 -83.63403927 831.02520683 -69.25 830.1875 C-70.20700806 829.99172363 -70.20700806 829.99172363 -71.18334961 829.79199219 C-74.18525722 829.17635449 -77.18637151 828.55692423 -80.1875 827.9375 C-81.69086914 827.63005859 -81.69086914 827.63005859 -83.22460938 827.31640625 C-86.57038488 826.62417684 -89.91094476 825.91147357 -93.25 825.1875 C-94.2202562 824.97746338 -94.2202562 824.97746338 -95.21011353 824.76318359 C-106.21653963 822.35399025 -116.88806752 819.28444585 -127.5625 815.6875 C-128.33392334 815.42938538 -129.10534668 815.17127075 -129.90014648 814.90533447 C-145.0601242 809.81169086 -159.73529086 803.92209898 -174.25 797.1875 C-175.15556641 796.76791016 -176.06113281 796.34832031 -176.99414062 795.91601562 C-196.62559606 786.70125083 -215.4766893 775.60347876 -233.25 763.1875 C-233.81799316 762.79675293 -234.38598633 762.40600586 -234.97119141 762.00341797 C-244.16171257 755.67734053 -252.82869301 748.79747915 -261.42382812 741.68896484 C-263.06849186 740.33673463 -264.72473524 739.0017045 -266.390625 737.67578125 C-271.62794093 733.48446557 -276.45281083 729.1135065 -281.1328125 724.30859375 C-283.12430728 722.31342462 -285.17379263 720.45996099 -287.3125 718.625 C-293.47853922 713.31535512 -299.05554652 707.53397861 -304.3515625 701.36328125 C-306.51745005 698.88097802 -308.75876957 696.47694855 -311 694.0625 C-316.78225025 687.71250615 -322.03866046 681.00897592 -327.25 674.1875 C-327.74290527 673.54619141 -328.23581055 672.90488281 -328.74365234 672.24414062 C-355.14015603 637.8412352 -375.30607441 599.85396194 -390.25 559.1875 C-390.79551514 557.72957031 -390.79551514 557.72957031 -391.35205078 556.2421875 C-399.7287248 533.79100027 -404.98141362 510.87607942 -409.0625 487.3125 C-409.2097049 486.47334045 -409.35690979 485.63418091 -409.50857544 484.76959229 C-413.17309553 463.68523844 -414.58866065 442.89635354 -414.51074219 421.50024414 C-414.49997799 417.99282689 -414.51073395 414.48591796 -414.5234375 410.97851562 C-414.53117995 398.57691282 -414.10553204 386.4128431 -412.50024414 374.1111145 C-412.14914422 371.41222652 -411.8482698 368.70786923 -411.5390625 366.00390625 C-410.10101671 354.39139206 -408.22322006 342.95449682 -405.74853516 331.51806641 C-405.27422938 329.30076818 -404.82709844 327.07971634 -404.38671875 324.85546875 C-394.31254553 275.26519554 -372.28820172 225.56257299 -343.25 184.1875 C-342.87311035 183.64754395 -342.4962207 183.10758789 -342.10791016 182.55126953 C-330.19117789 165.51297989 -317.23441674 149.57035841 -303.25 134.1875 C-302.486875 133.3315625 -301.72375 132.475625 -300.9375 131.59375 C-294.81771382 124.7296655 -288.58063455 118.26415066 -281.609375 112.265625 C-279.21899637 110.16019217 -276.88931289 108.00093362 -274.56274414 105.82568359 C-268.6628145 100.31748948 -262.67105495 95.08843457 -256.25 90.1875 C-255.57114746 89.66317383 -254.89229492 89.13884766 -254.19287109 88.59863281 C-198.37986778 45.56010686 -131.00127241 13.57120858 -60.56787109 4.49072266 C-57.9335496 4.14610213 -55.30512063 3.76745174 -52.67578125 3.38671875 C-50.74231785 3.11106336 -48.80872573 2.83630913 -46.875 2.5625 C-46.00721924 2.4389917 -45.13943848 2.3154834 -44.24536133 2.18823242 C-29.5013099 0.17596852 -14.85556825 -0.01792398 0 0 Z " fill="#5815B8" transform="translate(996.25,276.8125)"/>
<path d="M0 0 C3.3 0.66 6.6 1.32 10 2 C10 2.33 10 2.66 10 3 C6.37 3 2.74 3 -1 3 C-0.67 2.01 -0.34 1.02 0 0 Z " fill="#C9B3E9" transform="translate(919,1105)"/>
</svg>
